<svg aria-hidden="true" style="position: absolute; width: 0; height: 0; overflow: hidden;" version="1.1" xmlns="http://www.w3.org/2000/svg" xmlns:xlink="http://www.w3.org/1999/xlink">
<defs>
<symbol id="icon-Frame" viewBox="0 0 32 32">
<path d="M15.915 9.425c-3.951 0-7.224 3.217-7.224 7.224s3.217 7.224 7.224 7.224c4.007 0 7.224-3.273 7.224-7.224s-3.273-7.224-7.224-7.224zM15.915 21.277c-2.54 0-4.628-2.088-4.628-4.628s2.088-4.628 4.628-4.628c2.54 0 4.628 2.088 4.628 4.628s-2.088 4.628-4.628 4.628z"></path>
<path d="M23.421 10.892c0.904 0 1.637-0.733 1.637-1.637s-0.733-1.637-1.637-1.637c-0.904 0-1.637 0.733-1.637 1.637s0.733 1.637 1.637 1.637z"></path>
<path d="M27.654 5.023c-1.467-1.524-3.556-2.314-5.926-2.314h-11.626c-4.91 0-8.183 3.273-8.183 8.183v11.57c0 2.427 0.79 4.515 2.37 6.039 1.524 1.467 3.556 2.201 5.869 2.201h11.513c2.427 0 4.459-0.79 5.926-2.201 1.524-1.467 2.314-3.556 2.314-5.982v-11.626c0-2.37-0.79-4.402-2.258-5.87zM27.316 22.519c0 1.75-0.508 3.16-1.524 4.12s-2.427 1.467-4.12 1.467h-11.513c-1.693 0-3.104-0.508-4.12-1.467-1.016-1.016-1.524-2.427-1.524-4.176v-11.57c0-1.693 0.508-3.104 1.524-4.12 0.959-0.959 2.427-1.467 4.12-1.467h11.626c1.693 0 3.104 0.508 4.12 1.524 0.959 1.016 1.524 2.427 1.524 4.064v11.626h-0.113z"></path>
</symbol>
<symbol id="icon-Vector-4" viewBox="0 0 15 32">
<path d="M14.751 11.11h-4.569v-2.997c0-1.125 0.746-1.388 1.271-1.388 0.524 0 3.224 0 3.224 0v-4.947l-4.441-0.017c-4.929 0-6.051 3.69-6.051 6.051v3.298h-2.851v5.098h2.851c0 6.543 0 14.425 0 14.425h5.996c0 0 0-7.961 0-14.425h4.046l0.523-5.098z"></path>
</symbol>
<symbol id="icon-Vector-2" viewBox="0 0 39 32">
<path d="M36.962 4.427c-1.315 0.584-2.728 0.978-4.213 1.155 1.515-0.907 2.677-2.344 3.225-4.058-1.417 0.841-2.986 1.451-4.658 1.781-1.338-1.426-3.244-2.316-5.353-2.316-4.051 0-7.335 3.284-7.335 7.335 0 0.575 0.065 1.134 0.19 1.671-6.096-0.305-11.501-3.225-15.118-7.663-0.631 1.083-0.993 2.343-0.993 3.687 0 2.545 1.295 4.789 3.263 6.105-1.202-0.039-2.333-0.368-3.322-0.918-0.001 0.030-0.001 0.061-0.001 0.093 0 3.553 2.528 6.518 5.884 7.192-0.616 0.167-1.264 0.257-1.933 0.257-0.473 0-0.932-0.046-1.38-0.132 0.934 2.914 3.642 5.035 6.851 5.094-2.51 1.968-5.673 3.14-9.109 3.14-0.592 0-1.175-0.035-1.749-0.102 3.247 2.082 7.102 3.296 11.244 3.296 13.492 0 20.869-11.177 20.869-20.869 0-0.318-0.006-0.635-0.021-0.949 1.433-1.034 2.677-2.326 3.659-3.797z"></path>
</symbol>
</defs>
</svg>
